# xmcd
#
# Track frame offsets:
#	150
#	24221
#	29912
#	53991
#	76290
#	99746
#	118045
#	138929
#	162403
#	181465
#	198879
#
# Disc length: 2901 seconds
#
# Revision: 2897401488
# Processed by: cddbd v1.5.2PL0 Copyright (c) Steve Scherf et al.
# Submitted via: EZCDAudioConverter 8.0.2.1
#
DISCID=920b530b
DTITLE=Mai Quốc Huy - Sến 4. Xin Gọi Nhau Là Cố Nhân
DYEAR=2011
DGENRE=Miscellaneous
TTITLE0=Căn nhà mong ước
TTITLE1=Lời giới thiệu
TTITLE2=Hạnh phúc vẫn còn đây
TTITLE3=Bội bạc
TTITLE4=Cho vừa lòng em
TTITLE5=Trăng hờn tủi
TTITLE6=Xin Gọi Nhau Là Cố Nhân
TTITLE7=Éo le cuộc tình
TTITLE8=Mất nhau rồi
TTITLE9=Lá thư cuối cùng
TTITLE10=Mưa nửa đêm
EXTD=
EXTT0=
EXTT1=
EXTT2=
EXTT3=
EXTT4=
EXTT5=
EXTT6=
EXTT7=
EXTT8=
EXTT9=
EXTT10=
PLAYORDER=
